<svg xmlns="http://www.w3.org/2000/svg" viewBox="0 0 300 213.14"><defs><style>.cls-1{fill:none;}.cls-2{fill:#fef9f2;}</style></defs><g id="Layer_2" data-name="Layer 2"><g id="Layer_1-2" data-name="Layer 1"><path class="cls-1" d="M115.11,119.76a50.39,50.39,0,0,0,79.68-19c-12.25,3.42-25,6.76-38.2,9.92C142.4,114.06,128.46,117.12,115.11,119.76Z"/><path class="cls-2" d="M199.79,94.76a54.46,54.46,0,0,0,3-17.67c0-.69-.06-1.36-.09-2,7.19-2.12,14.05-4.22,20.36-6.28a85,85,0,0,0-3.35-14.44,83.14,83.14,0,0,0-7.81-17.1C198.36,14.85,174.87,0,148.09,0,109.42,0,77.56,30.93,72.86,70.88a85.79,85.79,0,0,0-.67,10.2c0,3,.14,6,.35,9A132.93,132.93,0,0,0,74.25,104c7.35-1.09,15.35-2.42,23.84-4a55.26,55.26,0,0,0,11.53,16.3c-10.82,2.08-21.22,3.88-31,5.36,14.56,45.81,49.87,78.18,63.74,89.52a8.71,8.71,0,0,0,11.28-.19c16.9-14.76,66.74-63.19,70.16-123.39C216.18,90,208.1,92.39,199.79,94.76ZM103,77.09A44.9,44.9,0,1,1,147.89,122,44.94,44.94,0,0,1,103,77.09Z"/><path class="cls-2" d="M299.63,42.76h0c-2.7-11.25-17.41-14-54.17-10.16-10.17,1.06-21.49,2.63-33.59,4.63a83.14,83.14,0,0,1,7.81,17.1c24.2-3.83,42.66-5.45,53.75-5.28-9.84,5.18-27.05,12.13-50.4,19.72-7.54,2.46-15.73,5-24.51,7.52-13.94,4-29.34,8.16-46.17,12.2-18,4.32-34.58,7.83-49.6,10.65-10.27,1.92-19.81,3.53-28.5,4.82-21.2,3.15-37.48,4.48-47.68,4.37,9.2-4.84,24.87-11.24,46-18.27-.21-3-.35-5.94-.35-9a85.79,85.79,0,0,1,.67-10.2C62.42,74.25,52.68,77.63,44,81,9.5,94.24-2.33,103.36.37,114.61c1.95,8.1,10.1,11.8,28.24,11.8a255.48,255.48,0,0,0,25.93-1.64c7.45-.78,15.55-1.84,24.08-3.13,11.43-1.73,23.67-3.87,36.49-6.41,13.35-2.65,27.29-5.71,41.48-9.11,13.16-3.16,25.95-6.5,38.2-9.92,10.12-2.83,19.85-5.72,29-8.62,11.74-3.73,22.59-7.49,32.18-11.18C290.5,63.13,302.33,54,299.63,42.76Z"/></g></g></svg>