<svg xmlns="http://www.w3.org/2000/svg" xmlns:xlink="http://www.w3.org/1999/xlink" viewBox="0 0 1441.04 581.31"><defs><style>.cls-1{fill:url(#linear-gradient);}.cls-2{fill:#fef9f2;}.cls-3{fill:url(#linear-gradient-2);}</style><linearGradient id="linear-gradient" x1="-3587.38" y1="-488.55" x2="-3587.38" y2="-489.4" gradientTransform="matrix(-1929.92, 0, 0, 680.02, -6922652.74, 332800.97)" gradientUnits="userSpaceOnUse"><stop offset="0" stop-color="#ffdf9d" stop-opacity="0.2"/><stop offset="0.5" stop-color="#ffdf9d" stop-opacity="0.7"/><stop offset="1" stop-color="#ffdf9d"/></linearGradient><linearGradient id="linear-gradient-2" x1="-3588.88" y1="-488.55" x2="-3588.88" y2="-489.4" gradientTransform="translate(6926989.45 332800.97) scale(1929.92 680.02)" gradientUnits="userSpaceOnUse"><stop offset="0" stop-color="#f85d48" stop-opacity="0.2"/><stop offset="0.5" stop-color="#f85d48" stop-opacity="0.7"/><stop offset="1" stop-color="#f85d48"/></linearGradient></defs><g id="Layer_2" data-name="Layer 2"><g id="Layer_1-2" data-name="Layer 1"><path id="Path_37" data-name="Path 37" class="cls-1" d="M0,581.31H1430.56s-53-62.76-152.28-98.84-240.81-21.7-330.11-18.65-255.09,8.3-384.72-159.12C442.29,148.23,318.33-3.36,0,.06"/><path id="Path_37-2" data-name="Path 37" class="cls-2" d="M1441,581.31H10.48s53-62.76,152.28-98.84,240.81-21.7,330.1-18.65S748,472.12,877.59,304.7C998.74,148.23,1122.71-3.36,1441,.06"/><path id="Path_37-3" data-name="Path 37" class="cls-3" d="M1441,581.31H10.48s53-62.76,152.28-98.84,240.81-21.7,330.1-18.65S748,472.12,877.59,304.7C998.74,148.23,1122.71-3.36,1441,.06"/></g></g></svg>