<svg xmlns="http://www.w3.org/2000/svg" viewBox="0 0 426.65 433.2"><defs><style>.cls-1{fill:#ffdf9d;}</style></defs><g id="Layer_2" data-name="Layer 2"><g id="Layer_1-2" data-name="Layer 1"><circle class="cls-1" cx="213.33" cy="216.6" r="138.97"/><path class="cls-1" d="M66.78,301.13a12.77,12.77,0,0,0-3.06-3.61,17.1,17.1,0,0,0-2.06-1.43,16.28,16.28,0,0,0-2.28-1.17,17.88,17.88,0,0,0-8-1.26,21.38,21.38,0,0,0-10.28,3.47,35.64,35.64,0,0,0-3.38,2.5,33.34,33.34,0,0,0-8.34,10.24,39.07,39.07,0,0,0-1.89,4.2,38.18,38.18,0,0,0-1.14,3.83,41.63,41.63,0,0,0-1,5.66,2.19,2.19,0,0,0,1.26,2.21,38.56,38.56,0,0,0,11.67,3,34.68,34.68,0,0,0,4.26.16,37.66,37.66,0,0,0,4.71-.46,38.93,38.93,0,0,0,10.14-3.17,18.74,18.74,0,0,0,10.45-11.81,17.9,17.9,0,0,0,.67-6.63A15.39,15.39,0,0,0,66.78,301.13Z"/><path class="cls-1" d="M46.76,245.94a12.75,12.75,0,0,0-1.68-4.44,15.75,15.75,0,0,0-3.14-3.94,18.42,18.42,0,0,0-7.1-3.92,21.12,21.12,0,0,0-10.8-.26A35.52,35.52,0,0,0,20,234.57a33,33,0,0,0-11.32,6.76A36.46,36.46,0,0,0,3,247.83a41.08,41.08,0,0,0-2.81,5,2.18,2.18,0,0,0,.45,2.5,36.49,36.49,0,0,0,9.9,6.85,34.82,34.82,0,0,0,8.49,2.8,39.17,39.17,0,0,0,10.64.51A18.74,18.74,0,0,0,43.55,258a16.63,16.63,0,0,0,2.91-6,14.16,14.16,0,0,0,.42-3.06A12.28,12.28,0,0,0,46.76,245.94Z"/><path class="cls-1" d="M46.77,187.15a15.11,15.11,0,0,0-1.69-9.52,18.35,18.35,0,0,0-2.24-3.23,18.06,18.06,0,0,0-3-2.85,21.22,21.22,0,0,0-10.08-3.93,36,36,0,0,0-4.21-.26,32.65,32.65,0,0,0-13,2.49A37.18,37.18,0,0,0,.66,177.76a2.19,2.19,0,0,0-.41,2.51,36.05,36.05,0,0,0,7,9.81,36.45,36.45,0,0,0,16.83,9.62,18.93,18.93,0,0,0,15.65-2.32,16.22,16.22,0,0,0,4.71-4.66A14,14,0,0,0,46.77,187.15Z"/><path class="cls-1" d="M66.83,132a15.57,15.57,0,0,0,1.62-4.45,15.09,15.09,0,0,0,0-5.07A18.15,18.15,0,0,0,65.66,115a21.1,21.1,0,0,0-8.12-7.16,34.83,34.83,0,0,0-3.86-1.69A33.26,33.26,0,0,0,40.6,104a39.11,39.11,0,0,0-13.86,3.36,2.19,2.19,0,0,0-1.23,2.24,38,38,0,0,0,3.15,11.6A37,37,0,0,0,41.19,136a19,19,0,0,0,15.52,3.2,17.62,17.62,0,0,0,6-2.76A13.27,13.27,0,0,0,66.83,132Z"/><path class="cls-1" d="M104.67,87a11.43,11.43,0,0,0,1.63-1.7,14.29,14.29,0,0,0,1.4-1.94,15.4,15.4,0,0,0,1.8-4.74,18.92,18.92,0,0,0-.14-8,21.28,21.28,0,0,0-5.2-9.49,36.07,36.07,0,0,0-3.06-2.91,32.8,32.8,0,0,0-11.56-6.44,37.5,37.5,0,0,0-8.43-1.58C79.88,50,78.75,50,77.77,50s-1.77.09-2.4.14a2.17,2.17,0,0,0-1.91,1.67,42.08,42.08,0,0,0-.87,4.75c-.12,1-.21,2.14-.25,3.34a35.11,35.11,0,0,0,.14,3.89A37,37,0,0,0,79.18,82,19.06,19.06,0,0,0,92.69,90.3a16.61,16.61,0,0,0,6.58-.57A13.31,13.31,0,0,0,104.67,87Z"/><path class="cls-1" d="M155.5,57.61a14.62,14.62,0,0,0,2.11-1,12.83,12.83,0,0,0,2-1.35,15.13,15.13,0,0,0,3.31-3.84,20.81,20.81,0,0,0,1.7-3.52,18.48,18.48,0,0,0,1-4.07,21.3,21.3,0,0,0-1.62-10.71,35.76,35.76,0,0,0-1.87-3.77,33.25,33.25,0,0,0-8.64-10A38.56,38.56,0,0,0,140.64,13a2.2,2.2,0,0,0-2.38.92A42.74,42.74,0,0,0,135.82,18a33.47,33.47,0,0,0-2.59,6.75,36.87,36.87,0,0,0,.06,19.38,20,20,0,0,0,4,7.81,18.33,18.33,0,0,0,5.84,4.63,16.84,16.84,0,0,0,6.37,1.74A13.25,13.25,0,0,0,155.5,57.61Z"/><path class="cls-1" d="M213.38,47.43a14.27,14.27,0,0,0,9.09-3.29,17.7,17.7,0,0,0,5.08-6.22,21.4,21.4,0,0,0,2.13-10.64,36.39,36.39,0,0,0-.47-4.17,33.71,33.71,0,0,0-4.71-12.38A38.42,38.42,0,0,0,214.66.42a2.09,2.09,0,0,0-2.54,0A39.5,39.5,0,0,0,203.66,9a37.2,37.2,0,0,0-6.56,18.29,18.89,18.89,0,0,0,5,15,17.1,17.1,0,0,0,2.58,2.2,19.73,19.73,0,0,0,2.82,1.65A13.24,13.24,0,0,0,213.38,47.43Z"/><path class="cls-1" d="M271.25,57.65a15.12,15.12,0,0,0,9.66,0,18.06,18.06,0,0,0,6.92-4.17,21.3,21.3,0,0,0,5.64-9.27,34.63,34.63,0,0,0,1-4.09,33.33,33.33,0,0,0-.21-13.19,36.79,36.79,0,0,0-5.73-13,2.21,2.21,0,0,0-2.4-.87,37.4,37.4,0,0,0-10.88,5.17,36.53,36.53,0,0,0-12.4,14.94,18.8,18.8,0,0,0-.42,15.77,17.79,17.79,0,0,0,3.75,5.5A15.47,15.47,0,0,0,271.25,57.65Z"/><path class="cls-1" d="M322.06,87.05a15.23,15.23,0,0,0,9.09,3.33,18,18,0,0,0,7.93-1.53,21.46,21.46,0,0,0,8.48-6.79,34.6,34.6,0,0,0,2.32-3.49,33.72,33.72,0,0,0,4.33-12.47,36.44,36.44,0,0,0-.9-14.21,2.18,2.18,0,0,0-1.95-1.64,36.94,36.94,0,0,0-12,1.12,34.66,34.66,0,0,0-8.3,3.31,38.8,38.8,0,0,0-8.48,6.45,18.75,18.75,0,0,0-5.81,14.64,17,17,0,0,0,1.62,6.48A15,15,0,0,0,320,84.86,14.58,14.58,0,0,0,322.06,87.05Z"/><path class="cls-1" d="M359.88,132.07a12.57,12.57,0,0,0,3.05,3.61,17.1,17.1,0,0,0,2.06,1.43,16.28,16.28,0,0,0,2.28,1.17,18,18,0,0,0,8,1.26,21.44,21.44,0,0,0,10.28-3.47,35.64,35.64,0,0,0,3.38-2.5,33.44,33.44,0,0,0,8.33-10.24,37.2,37.2,0,0,0,1.89-4.2,35.73,35.73,0,0,0,1.14-3.83,43.66,43.66,0,0,0,1-5.66,2.2,2.2,0,0,0-1.27-2.21,38.56,38.56,0,0,0-11.67-3,34.6,34.6,0,0,0-4.26-.16,37.33,37.33,0,0,0-4.7.46,38.88,38.88,0,0,0-10.15,3.17,18.8,18.8,0,0,0-10.45,11.81,18.12,18.12,0,0,0-.67,6.63A15.4,15.4,0,0,0,359.88,132.07Z"/><path class="cls-1" d="M379.9,187.26a12.73,12.73,0,0,0,1.67,4.44,15.79,15.79,0,0,0,3.15,3.94,18.38,18.38,0,0,0,7.09,3.92,21.24,21.24,0,0,0,10.8.26,34.37,34.37,0,0,0,4.06-1.19A32.77,32.77,0,0,0,418,191.87a36.46,36.46,0,0,0,5.64-6.5,41.08,41.08,0,0,0,2.81-5,2.18,2.18,0,0,0-.44-2.5,36.42,36.42,0,0,0-9.91-6.85,34.53,34.53,0,0,0-8.49-2.8,39.09,39.09,0,0,0-10.63-.51,18.73,18.73,0,0,0-13.87,7.5,16.79,16.79,0,0,0-2.91,6,14.16,14.16,0,0,0-.42,3.06A12.8,12.8,0,0,0,379.9,187.26Z"/><path class="cls-1" d="M379.88,246.05a15.17,15.17,0,0,0,1.69,9.52,19.48,19.48,0,0,0,2.24,3.23,18.06,18.06,0,0,0,3,2.85,21.22,21.22,0,0,0,10.09,3.93,35.89,35.89,0,0,0,4.21.26,32.56,32.56,0,0,0,13-2.49A37.14,37.14,0,0,0,426,255.44a2.21,2.21,0,0,0,.4-2.51,35.81,35.81,0,0,0-7-9.81,36.48,36.48,0,0,0-16.84-9.62A19,19,0,0,0,387,235.81a16.63,16.63,0,0,0-4.71,4.67A14.16,14.16,0,0,0,379.88,246.05Z"/><path class="cls-1" d="M359.83,301.22a15.33,15.33,0,0,0-1.62,4.44,15.14,15.14,0,0,0-.06,5.08,18.43,18.43,0,0,0,2.84,7.51,21.21,21.21,0,0,0,8.13,7.16A34.7,34.7,0,0,0,373,327.1a33.27,33.27,0,0,0,13.09,2.15,39.17,39.17,0,0,0,13.86-3.36,2.2,2.2,0,0,0,1.23-2.24,37.7,37.7,0,0,0-3.16-11.6,36.91,36.91,0,0,0-12.52-14.81,19.05,19.05,0,0,0-15.53-3.2,17.71,17.71,0,0,0-6,2.76A13.23,13.23,0,0,0,359.83,301.22Z"/><path class="cls-1" d="M322,346.21a12,12,0,0,0-1.62,1.71,14.29,14.29,0,0,0-1.4,1.94,15.18,15.18,0,0,0-1.8,4.73,19,19,0,0,0,.13,8.06,21.21,21.21,0,0,0,5.21,9.49,34.53,34.53,0,0,0,3.05,2.91,32.89,32.89,0,0,0,11.56,6.44,37.6,37.6,0,0,0,8.43,1.58c1.24.1,2.37.12,3.35.12s1.76-.09,2.39-.14a2.19,2.19,0,0,0,1.92-1.67,40.13,40.13,0,0,0,.86-4.76c.12-1,.22-2.13.26-3.33a35.23,35.23,0,0,0-.15-3.89,36.93,36.93,0,0,0-6.7-18.18A19,19,0,0,0,334,342.9a16.64,16.64,0,0,0-6.59.57A13.41,13.41,0,0,0,322,346.21Z"/><path class="cls-1" d="M271.16,375.59a14.73,14.73,0,0,0-2.12,1,12.83,12.83,0,0,0-2,1.35,15.33,15.33,0,0,0-3.31,3.84,20,20,0,0,0-1.69,3.52,17.94,17.94,0,0,0-1,4.07,21.31,21.31,0,0,0,1.63,10.71,35.72,35.72,0,0,0,1.86,3.77,33.28,33.28,0,0,0,8.65,10.05A38.44,38.44,0,0,0,286,420.25a2.2,2.2,0,0,0,2.38-.92,40.78,40.78,0,0,0,2.44-4.17,32.86,32.86,0,0,0,2.6-6.75,37,37,0,0,0-.06-19.38,20.15,20.15,0,0,0-4-7.81,18.44,18.44,0,0,0-5.84-4.63,16.89,16.89,0,0,0-6.37-1.74A13.23,13.23,0,0,0,271.16,375.59Z"/><path class="cls-1" d="M213.28,385.77a14.31,14.31,0,0,0-9.1,3.29,17.7,17.7,0,0,0-5.08,6.22A21.4,21.4,0,0,0,197,405.92a34.29,34.29,0,0,0,.47,4.17,33.88,33.88,0,0,0,4.7,12.38A38.57,38.57,0,0,0,212,432.78a2.1,2.1,0,0,0,2.55,0,39.74,39.74,0,0,0,8.45-8.54,37.2,37.2,0,0,0,6.57-18.29,18.93,18.93,0,0,0-5-15,16.62,16.62,0,0,0-2.58-2.2,17.89,17.89,0,0,0-2.82-1.65A13.17,13.17,0,0,0,213.28,385.77Z"/><path class="cls-1" d="M155.4,375.55a15.09,15.09,0,0,0-9.65,0,18.17,18.17,0,0,0-6.93,4.17,21.49,21.49,0,0,0-5.64,9.27,34.54,34.54,0,0,0-1,4.09,33.14,33.14,0,0,0,.21,13.19,36.43,36.43,0,0,0,5.73,13.05,2.2,2.2,0,0,0,2.39.87A37.16,37.16,0,0,0,151.41,415a36.62,36.62,0,0,0,12.41-14.94,18.75,18.75,0,0,0,.41-15.77,17.64,17.64,0,0,0-3.74-5.51A15.53,15.53,0,0,0,155.4,375.55Z"/><path class="cls-1" d="M104.59,346.15a15.22,15.22,0,0,0-9.08-3.33,18,18,0,0,0-7.94,1.53,21.5,21.5,0,0,0-8.47,6.79,33,33,0,0,0-2.32,3.49,33.37,33.37,0,0,0-4.33,12.47,36.44,36.44,0,0,0,.9,14.21A2.17,2.17,0,0,0,75.29,383a36.91,36.91,0,0,0,12-1.12,34.73,34.73,0,0,0,8.31-3.31,38.84,38.84,0,0,0,8.47-6.45,18.68,18.68,0,0,0,5.81-14.64,16.68,16.68,0,0,0-1.62-6.48,13.87,13.87,0,0,0-1.64-2.61A14.07,14.07,0,0,0,104.59,346.15Z"/></g></g></svg>